<svg width="25" height="24" viewBox="0 0 25 24" fill="none" xmlns="http://www.w3.org/2000/svg">
<g opacity="0.6">
<path d="M21.3333 11.5C21.3368 12.8199 21.0284 14.1219 20.4333 15.3C19.7278 16.7118 18.6431 17.8992 17.3008 18.7293C15.9585 19.5594 14.4116 19.9994 12.8333 20C11.5135 20.0035 10.2115 19.6951 9.03334 19.1L3.33334 21L5.23334 15.3C4.63827 14.1219 4.3299 12.8199 4.33334 11.5C4.33395 9.92179 4.77396 8.37488 5.60406 7.03258C6.43417 5.69028 7.6216 4.6056 9.03334 3.90003C10.2115 3.30496 11.5135 2.99659 12.8333 3.00003H13.3333C15.4177 3.11502 17.3864 3.99479 18.8625 5.47089C20.3386 6.94699 21.2184 8.91568 21.3333 11V11.5Z" stroke="white" stroke-linecap="round" stroke-linejoin="round"/>
</g>
</svg>
